<svg xmlns="http://www.w3.org/2000/svg" xmlns:xlink="http://www.w3.org/1999/xlink" viewBox="0 0 40 36"><path d="M 3.739 25.441 C 1.674 23.826 0.642 23.018 0.255 22.086 L 0 20.817 L 0 15.619 L 1.301 15.619 L 1.301 18.205 C 1.871 17.671 2.666 17.05 3.739 16.21 L 14.06 8.132 C 16.124 6.516 17.156 5.708 18.347 5.406 C 19.394 5.14 20.522 5.14 21.569 5.406 C 22.759 5.708 23.791 6.517 25.855 8.132 L 36.178 16.21 C 37.251 17.05 38.044 17.671 38.615 18.205 L 38.615 15.619 L 39.916 15.619 L 39.916 20.826 C 39.916 21.251 39.831 21.676 39.661 22.086 C 39.275 23.018 38.242 23.826 36.177 25.441 L 25.857 33.519 C 23.792 35.134 22.76 35.942 21.57 36.244 C 20.523 36.511 19.395 36.511 18.348 36.244 C 17.157 35.942 16.125 35.134 14.06 33.519 L 3.739 25.44 Z" fill="rgb(219,219,219)"/><path d="M 3.739 20.235 C 1.674 18.62 0.642 17.812 0.255 16.88 C -0.085 16.074 -0.085 15.164 0.255 14.358 C 0.642 13.427 1.674 12.619 3.739 11.004 L 14.06 2.926 C 16.124 1.31 17.156 0.502 18.347 0.2 C 19.394 -0.067 20.522 -0.067 21.569 0.2 C 22.759 0.502 23.791 1.31 25.855 2.926 L 36.178 11.004 C 38.242 12.619 39.275 13.427 39.661 14.358 C 40.002 15.164 40.002 16.074 39.661 16.88 C 39.275 17.812 38.242 18.62 36.177 20.235 L 25.857 28.312 C 23.792 29.928 22.76 30.736 21.57 31.038 C 20.523 31.305 19.395 31.305 18.348 31.038 C 17.157 30.736 16.125 29.927 14.06 28.312 Z" fill="rgb(255,255,255)"/><path d="M 15.534 10.234 C 14.502 9.426 13.986 9.022 13.792 8.556 C 13.622 8.153 13.622 7.699 13.792 7.296 C 13.986 6.83 14.502 6.426 15.534 5.619 L 17.009 4.464 C 18.041 3.657 18.557 3.252 19.152 3.101 C 19.681 2.968 20.235 2.968 20.764 3.101 C 21.359 3.252 21.875 3.657 22.906 4.464 L 24.381 5.619 C 25.413 6.426 25.93 6.83 26.124 7.296 C 26.292 7.705 26.292 8.147 26.124 8.556 C 25.93 9.022 25.413 9.427 24.381 10.234 L 22.906 11.388 C 21.875 12.196 21.359 12.6 20.764 12.751 C 20.235 12.884 19.681 12.884 19.152 12.751 C 18.556 12.6 17.009 11.388 17.009 11.388 Z" fill="rgb(255,134,134)"/><path d="M 25.364 17.927 C 24.332 17.119 23.816 16.716 23.622 16.25 C 23.452 15.847 23.452 15.392 23.622 14.988 C 23.816 14.523 24.332 14.119 25.364 13.311 L 26.838 12.157 C 27.871 11.349 28.387 10.946 28.982 10.794 C 29.511 10.661 30.064 10.661 30.593 10.794 C 31.188 10.945 31.704 11.349 32.736 12.157 L 34.212 13.311 C 35.243 14.119 35.759 14.523 35.953 14.988 C 36.123 15.398 36.123 15.84 35.953 16.25 C 35.759 16.716 35.243 17.119 34.211 17.927 L 32.736 19.081 C 31.705 19.889 31.188 20.292 30.593 20.444 C 30.064 20.577 29.511 20.577 28.982 20.444 C 28.387 20.292 27.871 19.889 26.838 19.081 L 25.364 17.927 Z" fill="rgb(90,255,136)"/><path d="M 5.705 17.927 C 4.672 17.119 4.156 16.716 3.963 16.25 C 3.792 15.847 3.792 15.392 3.963 14.988 C 4.156 14.523 4.672 14.119 5.705 13.311 L 7.179 12.157 C 8.212 11.349 8.727 10.946 9.323 10.794 C 9.851 10.661 10.405 10.661 10.933 10.794 C 11.529 10.945 12.044 11.349 13.076 12.157 L 24.382 21.004 C 25.414 21.812 25.931 22.216 26.124 22.682 C 26.293 23.091 26.293 23.532 26.124 23.942 C 25.931 24.408 25.414 24.812 24.382 25.62 L 22.907 26.773 C 21.876 27.582 21.36 27.986 20.764 28.137 C 20.24 28.27 19.676 28.27 19.153 28.137 C 18.557 27.986 18.042 27.581 17.01 26.773 Z" fill="rgb(118,140,255)"/></svg>